<svg width="35" height="35" viewBox="0 0 35 35" fill="none" xmlns="http://www.w3.org/2000/svg">
<g clip-path="url(#clip0_2_28)">
<path d="M17.5 2.91669C18.9422 2.91669 20.3519 3.34434 21.551 4.14555C22.7501 4.94677 23.6847 6.08558 24.2366 7.41795C24.7885 8.75033 24.9329 10.2164 24.6516 11.6309C24.3702 13.0453 23.6757 14.3446 22.656 15.3643C21.6362 16.3841 20.337 17.0786 18.9225 17.3599C17.5081 17.6413 16.042 17.4969 14.7096 16.945C13.3772 16.3931 12.2384 15.4585 11.4372 14.2594C10.636 13.0603 10.2083 11.6505 10.2083 10.2084L10.2156 9.8919C10.2972 8.01466 11.1003 6.24136 12.4574 4.94182C13.8146 3.64227 15.621 2.9168 17.5 2.91669ZM20.4167 20.4167C22.3505 20.4167 24.2052 21.1849 25.5727 22.5524C26.9401 23.9198 27.7083 25.7745 27.7083 27.7084V29.1667C27.7083 29.9402 27.401 30.6821 26.8541 31.2291C26.3071 31.7761 25.5652 32.0834 24.7917 32.0834H10.2083C9.43479 32.0834 8.69292 31.7761 8.14594 31.2291C7.59896 30.6821 7.29167 29.9402 7.29167 29.1667V27.7084C7.29167 25.7745 8.05989 23.9198 9.42735 22.5524C10.7948 21.1849 12.6495 20.4167 14.5833 20.4167H20.4167Z" fill="#427D9D"/>
</g>
<defs>
<clipPath id="clip0_2_28">
<rect width="35" height="35" fill="white"/>
</clipPath>
</defs>
</svg>
